<svg width="45" height="45" viewBox="0 0 45 45" fill="none" xmlns="http://www.w3.org/2000/svg">
<path d="M35.1565 13.3593H22.5001C22.0146 13.3593 21.6212 13.7528 21.6212 14.2382C21.6212 14.7237 22.0146 15.1172 22.5001 15.1172H35.1565C35.6419 15.1172 36.0354 14.7237 36.0354 14.2382C36.0354 13.7528 35.6419 13.3593 35.1565 13.3593Z" fill="#494949"/>
<path d="M32.081 17.8357C31.9175 17.6723 31.6907 17.5782 31.4596 17.5782C31.2284 17.5782 31.0017 17.6723 30.8382 17.8357C30.6747 17.9992 30.5807 18.226 30.5807 18.4571C30.5807 18.6883 30.6747 18.915 30.8382 19.0785C31.0017 19.242 31.2284 19.336 31.4596 19.336C31.6907 19.336 31.9175 19.242 32.081 19.0785C32.2445 18.915 32.3385 18.6883 32.3385 18.4571C32.3385 18.226 32.2445 17.9992 32.081 17.8357Z" fill="#494949"/>
<path d="M23.1205 4.03691C22.9571 3.87343 22.7303 3.77939 22.4991 3.77939C22.268 3.77939 22.0412 3.87343 21.8778 4.03691C21.7143 4.20038 21.6202 4.42714 21.6202 4.65829C21.6202 4.88945 21.7143 5.1162 21.8778 5.27968C22.0412 5.44315 22.268 5.5372 22.4991 5.5372C22.7303 5.5372 22.9571 5.44315 23.1205 5.27968C23.284 5.1162 23.378 4.88945 23.378 4.65829C23.378 4.42714 23.284 4.20038 23.1205 4.03691Z" fill="#494949"/>
<path d="M27.7627 17.5781H22.5001C22.0146 17.5781 21.6212 17.9716 21.6212 18.457C21.6212 18.9424 22.0146 19.3359 22.5001 19.3359H27.7627C28.2481 19.3359 28.6416 18.9424 28.6416 18.457C28.6416 17.9716 28.2481 17.5781 27.7627 17.5781Z" fill="#494949"/>
<path d="M35.1565 22.8515H22.5001C22.0146 22.8515 21.6212 23.245 21.6212 23.7304C21.6212 24.2159 22.0146 24.6093 22.5001 24.6093H35.1565C35.6419 24.6093 36.0354 24.2159 36.0354 23.7304C36.0354 23.245 35.6419 22.8515 35.1565 22.8515Z" fill="#494949"/>
<path d="M32.081 27.3279C31.9175 27.1644 31.6907 27.0704 31.4596 27.0704C31.2284 27.0704 31.0017 27.1644 30.8382 27.3279C30.6747 27.4914 30.5807 27.7181 30.5807 27.9493C30.5807 28.1804 30.6747 28.4072 30.8382 28.5707C31.0017 28.7341 31.2284 28.8282 31.4596 28.8282C31.6907 28.8282 31.9175 28.7341 32.081 28.5707C32.2445 28.4072 32.3385 28.1804 32.3385 27.9493C32.3385 27.7181 32.2445 27.4914 32.081 27.3279Z" fill="#494949"/>
<path d="M27.7627 27.0703H22.5001C22.0146 27.0703 21.6212 27.4637 21.6212 27.9492C21.6212 28.4346 22.0146 28.8281 22.5001 28.8281H27.7627C28.2481 28.8281 28.6416 28.4346 28.6416 27.9492C28.6416 27.4637 28.2481 27.0703 27.7627 27.0703Z" fill="#494949"/>
<path d="M35.1565 32.3437H22.5001C22.0146 32.3437 21.6212 32.7372 21.6212 33.2226C21.6212 33.708 22.0146 34.1015 22.5001 34.1015H35.1565C35.6419 34.1015 36.0354 33.708 36.0354 33.2226C36.0354 32.7372 35.6419 32.3437 35.1565 32.3437Z" fill="#494949"/>
<path d="M32.081 36.8201C31.9175 36.6566 31.6907 36.5626 31.4596 36.5626C31.2284 36.5626 31.0017 36.6566 30.8382 36.8201C30.6747 36.9836 30.5807 37.2103 30.5807 37.4415C30.5807 37.6726 30.6747 37.8994 30.8382 38.0629C31.0017 38.2263 31.2284 38.3204 31.4596 38.3204C31.6907 38.3204 31.9175 38.2263 32.081 38.0629C32.2445 37.8994 32.3385 37.6726 32.3385 37.4415C32.3385 37.2103 32.2445 36.9836 32.081 36.8201Z" fill="#494949"/>
<path d="M27.7627 36.5624H22.5001C22.0146 36.5624 21.6212 36.9559 21.6212 37.4413C21.6212 37.9268 22.0146 38.3202 22.5001 38.3202H27.7627C28.2481 38.3202 28.6416 37.9268 28.6416 37.4413C28.6416 36.9559 28.2481 36.5624 27.7627 36.5624Z" fill="#494949"/>
<path d="M36.8474 3.42782H30.1345C29.1641 2.50312 27.8523 1.93359 26.4092 1.93359H25.6393C25.0507 0.768338 23.8414 0 22.4999 0C21.1585 0 19.9493 0.768338 19.3606 1.93359H18.5888C17.1457 1.93359 15.8341 2.50312 14.8637 3.42782H8.15261C5.78968 3.42782 3.86725 5.35024 3.86725 7.71318V40.7146C3.86725 43.0776 5.78968 45 8.15261 45H36.8474C39.2103 45 41.1327 43.0776 41.1327 40.7146V7.71318C41.1328 5.35024 39.2104 3.42782 36.8474 3.42782ZM18.5889 3.6914H19.9588C20.3541 3.6914 20.7007 3.42746 20.8059 3.04646C21.0156 2.2877 21.7122 1.75781 22.5 1.75781C23.2879 1.75781 23.9845 2.2877 24.194 3.04646C24.2992 3.42746 24.646 3.6914 25.0412 3.6914H26.4092C28.3169 3.6914 29.8871 5.16356 30.0438 7.03132H14.9543C15.111 5.16356 16.6813 3.6914 18.5889 3.6914ZM39.375 40.7147C39.375 42.1084 38.2411 43.2423 36.8474 43.2423H8.15261C6.75893 43.2423 5.62506 42.1084 5.62506 40.7147V7.71318C5.62506 6.3195 6.75893 5.18563 8.15261 5.18563H13.6323C13.3444 5.84586 13.1836 6.57377 13.1836 7.33894V7.91023C13.1836 8.39565 13.5771 8.78913 14.0625 8.78913H30.9357C31.4211 8.78913 31.8146 8.39565 31.8146 7.91023V7.33894C31.8146 6.57385 31.6538 5.84586 31.3659 5.18563H36.8474C38.2411 5.18563 39.375 6.3195 39.375 7.71318V40.7147Z" fill="#494949"/>
<path d="M16.911 13.148C16.5678 12.8047 16.0113 12.8047 15.6681 13.1479L11.9097 16.9063L10.7519 15.7485C10.4087 15.4053 9.85217 15.4053 9.50887 15.7485C9.16566 16.0917 9.16566 16.6482 9.50887 16.9915L11.2882 18.7708C11.4599 18.9425 11.6848 19.0283 11.9097 19.0283C12.1346 19.0283 12.3596 18.9425 12.5312 18.7708L16.911 14.391C17.2542 14.0478 17.2542 13.4913 16.911 13.148Z" fill="#494949"/>
<path d="M14.7657 32.3437H10.5469C10.0615 32.3437 9.66803 32.7372 9.66803 33.2226V37.4413C9.66803 37.9268 10.0615 38.3202 10.5469 38.3202H14.7657C15.2511 38.3202 15.6446 37.9268 15.6446 37.4413V33.2226C15.6446 32.7372 15.2511 32.3437 14.7657 32.3437ZM13.8868 36.5624H11.4258V34.1015H13.8868V36.5624Z" fill="#494949"/>
<path d="M14.7657 22.8515H10.5469C10.0615 22.8515 9.66803 23.245 9.66803 23.7304V27.9492C9.66803 28.4346 10.0615 28.8281 10.5469 28.8281H14.7657C15.2511 28.8281 15.6446 28.4346 15.6446 27.9492V23.7304C15.6446 23.245 15.2511 22.8515 14.7657 22.8515ZM13.8868 27.0703H11.4258V24.6093H13.8868V27.0703Z" fill="#494949"/>
</svg>
